<svg width="30" height="30" viewBox="0 0 30 30" fill="none" xmlns="http://www.w3.org/2000/svg">
<path d="M21.7208 0H8.27869C3.71382 0 0 3.714 0 8.27887V21.721C0 26.286 3.71382 29.9998 8.27869 29.9998H21.7208C26.286 29.9998 29.9998 26.2858 29.9998 21.721V8.27887C30 3.714 26.286 0 21.7208 0ZM27.3383 21.721C27.3383 24.8183 24.8183 27.3381 21.721 27.3381H8.27869C5.1815 27.3383 2.66173 24.8183 2.66173 21.721V8.27887C2.66173 5.18168 5.1815 2.66173 8.27869 2.66173H21.7208C24.8181 2.66173 27.3381 5.18168 27.3381 8.27887V21.721H27.3383Z" fill="#C4C4C4"/>
<path d="M15 7.27002C10.7375 7.27002 7.26978 10.7377 7.26978 15.0002C7.26978 19.2625 10.7375 22.7301 15 22.7301C19.2625 22.7301 22.7302 19.2625 22.7302 15.0002C22.7302 10.7377 19.2625 7.27002 15 7.27002ZM15 20.0681C12.2053 20.0681 9.9315 17.7947 9.9315 15C9.9315 12.2052 12.2052 9.93157 15 9.93157C17.7948 9.93157 20.0684 12.2052 20.0684 15C20.0684 17.7947 17.7946 20.0681 15 20.0681Z" fill="#C4C4C4"/>
<path d="M23.0542 5.01294C22.5414 5.01294 22.0376 5.22055 21.6755 5.58432C21.3115 5.94632 21.1023 6.45027 21.1023 6.96487C21.1023 7.47788 21.3117 7.98165 21.6755 8.34542C22.0374 8.70742 22.5414 8.91681 23.0542 8.91681C23.5688 8.91681 24.071 8.70742 24.4348 8.34542C24.7985 7.98165 25.0062 7.4777 25.0062 6.96487C25.0062 6.45027 24.7985 5.94632 24.4348 5.58432C24.0728 5.22055 23.5688 5.01294 23.0542 5.01294Z" fill="#C4C4C4"/>
</svg>
