<svg width="14" height="14" viewBox="0 0 14 14" fill="none" xmlns="http://www.w3.org/2000/svg">
<path d="M11.647 2.43417C10.5783 0.887332 8.8844 0 7.00011 0C5.11583 0 3.42196 0.887332 2.35318 2.43417C1.28964 3.97318 1.04407 5.92162 1.69496 7.64304C1.86906 8.11314 2.1458 8.56986 2.51555 8.99784L6.62744 13.8277C6.72044 13.937 6.85669 14 7.00011 14C7.14353 14 7.27978 13.937 7.37278 13.8277L11.4835 8.99916C11.8549 8.56871 12.1313 8.11248 12.304 7.64616C12.9562 5.92162 12.7106 3.97318 11.647 2.43417ZM11.3873 7.30332C11.2541 7.66311 11.0368 8.01883 10.7416 8.36098C10.7408 8.3618 10.74 8.36262 10.7393 8.36361L7.00011 12.7555L3.25861 8.36084C2.9636 8.01899 2.74624 7.6633 2.6118 7.30007C2.07351 5.87642 2.27779 4.26543 3.15842 2.99091C4.04182 1.71232 5.44215 0.979016 7.00011 0.979016C8.55805 0.979016 9.95821 1.71229 10.8416 2.99091C11.7224 4.26543 11.9269 5.87642 11.3873 7.30332Z" fill="#01990D"/>
<path d="M7.00018 2.90442C5.48872 2.90442 4.25891 4.13407 4.25891 5.64568C4.25891 7.1573 5.48856 8.38695 7.00018 8.38695C8.51179 8.38695 9.74144 7.1573 9.74144 5.64568C9.74144 4.13423 8.51163 2.90442 7.00018 2.90442ZM7.00018 7.40791C6.02849 7.40791 5.23793 6.61734 5.23793 5.64566C5.23793 4.67397 6.02849 3.88341 7.00018 3.88341C7.97186 3.88341 8.76243 4.67397 8.76243 5.64566C8.76243 6.61734 7.97186 7.40791 7.00018 7.40791Z" fill="#01990D"/>
</svg>
