<svg width="30" height="30" viewBox="0 0 30 30" fill="none" xmlns="http://www.w3.org/2000/svg">
<path d="M30 14.6141C30 22.6846 23.4066 29.2272 15.2715 29.2272C12.6899 29.2272 10.2648 28.5669 8.15372 27.4106L0 30L2.65791 22.1574C1.3177 19.9563 0.545864 17.3718 0.545864 14.6131C0.546842 6.54254 7.13829 0 15.2734 0C23.4076 0.0019565 30 6.54352 30 14.6141ZM15.2705 2.33019C8.44328 2.33019 2.88975 7.84165 2.88975 14.617C2.88975 17.3052 3.76626 19.7939 5.24831 21.8189L3.70268 26.3805L8.45893 24.8691C10.4154 26.1525 12.7564 26.8999 15.2705 26.8999C22.0977 26.8999 27.6532 21.3894 27.6532 14.6141C27.6551 7.84165 22.0987 2.33019 15.2705 2.33019ZM22.7091 17.9802C22.6171 17.8325 22.3765 17.7425 22.0165 17.5625C21.6575 17.3825 19.88 16.5168 19.5503 16.3994C19.2177 16.2791 18.9771 16.2184 18.7364 16.5774C18.4987 16.9364 17.8061 17.7425 17.5938 17.9832C17.3835 18.2228 17.1732 18.2532 16.8122 18.0761C16.4512 17.8942 15.2871 17.5185 13.9078 16.2986C12.8346 15.3478 12.1098 14.1768 11.9004 13.8178C11.6881 13.4597 11.8789 13.2661 12.0579 13.088C12.2193 12.9266 12.4189 12.6693 12.5999 12.459C12.7808 12.2506 12.8405 12.1029 12.9608 11.8632C13.0792 11.6236 13.0195 11.4152 12.9305 11.2342C12.8405 11.0542 12.1195 9.29338 11.8173 8.57632C11.5169 7.86024 11.2166 7.97861 11.0053 7.97861C10.795 7.97861 10.5543 7.94926 10.3137 7.94926C10.073 7.94926 9.68174 8.03633 9.35207 8.39534C9.0224 8.75436 8.08915 9.62011 8.08915 11.3829C8.08915 13.1477 9.38142 14.8489 9.5624 15.0876C9.74435 15.3253 12.0608 19.0612 15.7303 20.4953C19.4016 21.9285 19.4016 21.4501 20.0629 21.3894C20.7262 21.3288 22.1994 20.5237 22.4988 19.6883C22.8001 18.8489 22.8001 18.1299 22.7091 17.9802Z" fill="#C4C4C4"/>
</svg>
