<svg width="20" height="20" viewBox="0 0 20 20" fill="none" xmlns="http://www.w3.org/2000/svg">
<path d="M14.4805 0H5.51913C2.47588 0 0 2.476 0 5.51924V14.4806C0 17.524 2.47588 19.9999 5.51913 19.9999H14.4805C17.524 19.9999 19.9999 17.5239 19.9999 14.4806V5.51924C20 2.476 17.524 0 14.4805 0ZM18.2255 14.4806C18.2255 16.5455 16.5455 18.2254 14.4806 18.2254H5.51913C3.45433 18.2255 1.77449 16.5455 1.77449 14.4806V5.51924C1.77449 3.45445 3.45433 1.77449 5.51913 1.77449H14.4805C16.5454 1.77449 18.2254 3.45445 18.2254 5.51924V14.4806H18.2255Z" fill="white"/>
<path d="M9.9999 4.84668C7.15824 4.84668 4.84644 7.15848 4.84644 10.0001C4.84644 12.8417 7.15824 15.1534 9.9999 15.1534C12.8416 15.1534 15.1534 12.8417 15.1534 10.0001C15.1534 7.15848 12.8416 4.84668 9.9999 4.84668ZM9.9999 13.3788C8.13681 13.3788 6.62092 11.8631 6.62092 10C6.62092 8.13681 8.13669 6.62105 9.9999 6.62105C11.8631 6.62105 13.3789 8.13681 13.3789 10C13.3789 11.8631 11.863 13.3788 9.9999 13.3788Z" fill="white"/>
<path d="M15.3697 3.34204C15.0278 3.34204 14.6919 3.48045 14.4505 3.72296C14.2078 3.96429 14.0684 4.30026 14.0684 4.64333C14.0684 4.98533 14.208 5.32118 14.4505 5.5637C14.6918 5.80503 15.0278 5.94462 15.3697 5.94462C15.7127 5.94462 16.0475 5.80503 16.29 5.5637C16.5325 5.32118 16.6709 4.98521 16.6709 4.64333C16.6709 4.30026 16.5325 3.96429 16.29 3.72296C16.0487 3.48045 15.7127 3.34204 15.3697 3.34204Z" fill="white"/>
</svg>
