<svg width="20" height="20" viewBox="0 0 20 20" fill="none" xmlns="http://www.w3.org/2000/svg">
<path d="M19.1714 13.5089C18.5759 12.7946 17.8752 12.1851 17.2121 11.5378C16.614 10.9544 16.5762 10.6159 17.0571 9.9425C17.5819 9.20755 18.1463 8.50079 18.6758 7.76915C19.1701 7.08539 19.6754 6.4035 19.9356 5.58481C20.1005 5.06396 19.9546 4.8339 19.4205 4.7427C19.3285 4.72674 19.2333 4.72591 19.1397 4.72591L15.9708 4.72218C15.5806 4.71638 15.3648 4.88654 15.2268 5.23246C15.0404 5.70005 14.8483 6.16722 14.6263 6.61843C14.1227 7.64148 13.5602 8.63033 12.7715 9.46767C12.5976 9.65234 12.4053 9.88571 12.1147 9.78955C11.7512 9.6569 11.644 9.05791 11.65 8.85541L11.6469 5.19785C11.5765 4.67534 11.4606 4.44238 10.9418 4.34082L7.65007 4.34144C7.21068 4.34144 6.99036 4.51119 6.75573 4.78602C6.62039 4.94478 6.57956 5.04779 6.85771 5.10044C7.40405 5.20407 7.71184 5.55766 7.7935 6.10545C7.92449 6.98072 7.91537 7.85952 7.83992 8.73831C7.81775 8.9949 7.7736 9.25087 7.67183 9.49046C7.51266 9.86706 7.25565 9.94375 6.91802 9.71203C6.61231 9.50228 6.39759 9.20631 6.18742 8.90909C5.39796 7.79361 4.76809 6.59066 4.25449 5.32656C4.10609 4.96136 3.85012 4.74001 3.46316 4.734C2.51245 4.71887 1.56153 4.71638 0.610819 4.73483C0.0387749 4.7456 -0.131802 5.02334 0.101161 5.54191C1.13664 7.84521 2.28923 10.0845 3.79375 12.1244C4.56622 13.1712 5.45309 14.0954 6.59884 14.7504C7.89734 15.4928 9.29511 15.7162 10.7673 15.6474C11.4567 15.6151 11.6637 15.4358 11.6956 14.7487C11.7172 14.2786 11.7704 13.8113 12.0024 13.3889C12.2299 12.9743 12.5746 12.8954 12.9719 13.1532C13.1707 13.2823 13.3382 13.4467 13.4963 13.62C13.8843 14.0444 14.2584 14.4818 14.6611 14.8919C15.1662 15.4059 15.7646 15.7096 16.517 15.6476L19.4294 15.6482C19.8987 15.6176 20.142 15.0422 19.8725 14.5184C19.6833 14.1516 19.435 13.8249 19.1714 13.5089Z" fill="white"/>
</svg>
