<svg width="20" height="20" viewBox="0 0 20 20" fill="none" xmlns="http://www.w3.org/2000/svg">
<path d="M14.9992 0.00416134L12.4057 0C9.49197 0 7.60899 1.9319 7.60899 4.92203V7.19141H5.00131C4.77598 7.19141 4.59351 7.37409 4.59351 7.59943V10.8875C4.59351 11.1128 4.77619 11.2953 5.00131 11.2953H7.60899V19.5922C7.60899 19.8175 7.79146 20 8.01679 20H11.4191C11.6444 20 11.8269 19.8173 11.8269 19.5922V11.2953H14.8759C15.1012 11.2953 15.2837 11.1128 15.2837 10.8875L15.2849 7.59943C15.2849 7.49123 15.2418 7.38762 15.1655 7.31105C15.0891 7.23448 14.9851 7.19141 14.8769 7.19141H11.8269V5.26763C11.8269 4.34298 12.0472 3.87358 13.2517 3.87358L14.9988 3.87295C15.2239 3.87295 15.4064 3.69027 15.4064 3.46514V0.411972C15.4064 0.187052 15.2242 0.00457747 14.9992 0.00416134Z" fill="white"/>
</svg>
